<?xml version="1.0" encoding="UTF-8" standalone="no"?>
<svg
   height="16px"
   viewBox="0 0 16 16"
   width="16px"
   version="1.1"
   id="svg13"
   xmlns="http://www.w3.org/2000/svg"
   xmlns:svg="http://www.w3.org/2000/svg">
  <defs
     id="defs13" />
  <filter
     id="a"
     height="1"
     width="1"
     x="0"
     y="0">
    <feColorMatrix
       color-interpolation-filters="sRGB"
       values="0 0 0 0 1 0 0 0 0 1 0 0 0 0 1 0 0 0 1 0"
       id="feColorMatrix1" />
  </filter>
  <mask
     id="b">
    <g
       filter="url(#a)"
       id="g1">
      <path
         d="m -1.6 -1.6 h 19.2 v 19.2 h -19.2 z"
         fill-opacity="0.5"
         id="path1" />
    </g>
  </mask>
  <clipPath
     id="c">
    <path
       d="m 0 0 h 1600 v 1200 h -1600 z"
       id="path2" />
  </clipPath>
  <mask
     id="d">
    <g
       filter="url(#a)"
       id="g3">
      <path
         d="m -1.6 -1.6 h 19.2 v 19.2 h -19.2 z"
         fill-opacity="0.7"
         id="path3" />
    </g>
  </mask>
  <clipPath
     id="e">
    <path
       d="m 0 0 h 1600 v 1200 h -1600 z"
       id="path4" />
  </clipPath>
  <mask
     id="f">
    <g
       filter="url(#a)"
       id="g5">
      <path
         d="m -1.6 -1.6 h 19.2 v 19.2 h -19.2 z"
         fill-opacity="0.35"
         id="path5" />
    </g>
  </mask>
  <clipPath
     id="g">
    <path
       d="m 0 0 h 1600 v 1200 h -1600 z"
       id="path6" />
  </clipPath>
  <path
     d="M 8.59375,1 C 9.207031,1.007812 9.828125,1.089844 10.441406,1.257812 13.714844,2.132812 16,5.109375 16,8.5 16,11.890625 13.714844,14.867188 10.441406,15.742188 7.167969,16.621094 3.699219,15.1875 2.003906,12.25 1.726562,11.773438 1.894531,11.160156 2.371094,10.886719 2.847656,10.609375 3.460938,10.773438 3.738281,11.25 c 1.246094,2.160156 3.777344,3.207031 6.1875,2.5625 C 12.332031,13.167969 14,10.996094 14,8.5 14,6.003906 12.332031,3.832031 9.925781,3.1875 7.515625,2.542969 4.984375,3.589844 3.738281,5.75 3.679688,5.835938 3.613281,5.914062 3.535156,5.980469 L 3.554688,5.992188 3.5625,6 H 5 C 5.550781,6 6,6.449219 6,7 V 8 H 0 V 2 H 1 C 1.550781,2 2,2.449219 2,3 V 4.6875 L 2.015625,4.699219 2.027344,4.710938 C 3.304688,2.53125 5.558594,1.191406 7.980469,1.019531 8.183594,1.003906 8.386719,1 8.59375,1.003906 Z m 0,0"
     fill="#222222"
     id="path7" />
  <g
     mask="url(#b)"
     id="g9"
     style="display:inline">
    <g
       clip-path="url(#c)"
       transform="translate(-680,-844)"
       id="g8">
      <path
         d="m 550,182 c -0.35156,0.004 -0.69531,0.10156 -1,0.28125 v 3.4375 c 0.30469,0.17969 0.64844,0.27734 1,0.28125 1.10547,0 2,-0.89453 2,-2 0,-1.10547 -0.89453,-2 -2,-2 z m 0,5 c -0.33984,0 -0.67969,0.0586 -1,0.17578 V 194 h 4 v -4 c 0,-1.65625 -1.34375,-3 -3,-3 z m 0,0"
         id="path8" />
    </g>
  </g>
  <g
     mask="url(#d)"
     id="g11"
     style="display:inline">
    <g
       clip-path="url(#e)"
       transform="translate(-680,-844)"
       id="g10">
      <path
         d="m 569,182 v 4 c 1.10547,0 2,-0.89453 2,-2 0,-1.10547 -0.89453,-2 -2,-2 z m 0,5 v 7 h 3 v -4 c 0,-1.65625 -1.34375,-3 -3,-3 z m 0,0"
         id="path9" />
    </g>
  </g>
  <g
     mask="url(#f)"
     id="g13"
     style="display:inline">
    <g
       clip-path="url(#g)"
       transform="translate(-680,-844)"
       id="g12">
      <path
         d="m 573,182.26953 v 3.44922 c 0.61328,-0.35547 0.99609,-1.00781 1,-1.71875 0,-0.71484 -0.38281,-1.375 -1,-1.73047 z m 0,4.90625 V 194 h 2 v -4 c 0,-1.26953 -0.80078,-2.40234 -2,-2.82422 z m 0,0"
         id="path11" />
    </g>
  </g>
</svg>
