<?xml version="1.0" encoding="UTF-8"?>
<svg height="16px" viewBox="0 0 16 16" width="16px" xmlns="http://www.w3.org/2000/svg">
    <g fill="#241f31">
        <path d="m 2 0 c -1.109375 0 -2 0.890625 -2 2 v 12 c 0 1.109375 0.890625 2 2 2 h 12 c 1.109375 0 2 -0.890625 2 -2 v -12 c 0 -1.109375 -0.890625 -2 -2 -2 z m 2 2 h 8 c 1.109375 0 2 0.890625 2 2 v 6 c 0 1.109375 -0.890625 2 -2 2 h -8 c -1.109375 0 -2 -0.890625 -2 -2 v -6 c 0 -1.109375 0.890625 -2 2 -2 z m 0 0"/>
        <path d="m 8.390625 4 c 0.09375 0.007812 0.1875 0.019531 0.28125 0.035156 c 0.789063 0.109375 1.503906 0.53125 1.984375 1.167969 c 0.992188 1.324219 0.710938 3.214844 -0.609375 4.207031 c -1.320313 0.988282 -3.210937 0.710938 -4.203125 -0.613281 c -0.0625 -0.082031 -0.09375 -0.191406 -0.09375 -0.296875 v -0.5 h 0.5 c 0.160156 0.003906 0.308594 0.078125 0.40625 0.203125 c 0.667969 0.890625 1.910156 1.058594 2.796875 0.390625 c 0.890625 -0.664062 1.058594 -1.90625 0.390625 -2.796875 c -0.667969 -0.886719 -1.910156 -1.054687 -2.796875 -0.390625 c -0.214844 0.164062 -0.386719 0.367188 -0.515625 0.59375 h 0.71875 c 0.277344 0 0.5 0.226562 0.5 0.5 v 0.5 h -3 v -3 h 0.5 c 0.277344 0 0.5 0.226562 0.5 0.5 v 0.847656 c 0.578125 -0.886718 1.585938 -1.398437 2.640625 -1.347656 z m 0 0"/>
    </g>
</svg>
