<?xml version="1.0" encoding="UTF-8"?>
<svg height="16px" viewBox="0 0 16 16" width="16px" xmlns="http://www.w3.org/2000/svg">
    <path d="m 1.777344 0 c -0.984375 0 -1.777344 0.890625 -1.777344 2 v 12 c 0 1.109375 0.792969 2 1.777344 2 h 12.445312 c 0.984375 0 1.777344 -0.890625 1.777344 -2 v -12 c 0 -1.109375 -0.792969 -2 -1.777344 -2 z m 1.335937 2 h 9.523438 c 0.753906 0 1.363281 0.558594 1.363281 1.25 v 7.5 c 0 0.691406 -0.609375 1.25 -1.363281 1.25 h -9.523438 c -0.75 0 -1.359375 -0.558594 -1.359375 -1.25 v -7.5 c 0 -0.691406 0.609375 -1.25 1.359375 -1.25 z m 0 0" fill="#241f31"/>
    <path d="m 6 10 v -6 l 4 3 z m 0 0" fill="#e01b24"/>
</svg>
