<?xml version="1.0" encoding="UTF-8" standalone="no"?>
<!-- Created with Inkscape (http://www.inkscape.org/) -->

<svg
   xmlns:osb="http://www.openswatchbook.org/uri/2009/osb"
   xmlns:dc="http://purl.org/dc/elements/1.1/"
   xmlns:cc="http://creativecommons.org/ns#"
   xmlns:rdf="http://www.w3.org/1999/02/22-rdf-syntax-ns#"
   xmlns:svg="http://www.w3.org/2000/svg"
   xmlns="http://www.w3.org/2000/svg"
   xmlns:xlink="http://www.w3.org/1999/xlink"
   xmlns:sodipodi="http://sodipodi.sourceforge.net/DTD/sodipodi-0.dtd"
   xmlns:inkscape="http://www.inkscape.org/namespaces/inkscape"
   width="128"
   height="128"
   viewBox="0 0 33.866666 33.866667"
   version="1.1"
   id="svg8"
   inkscape:version="0.92.4 5da689c313, 2019-01-14"
   sodipodi:docname="unitube-logo.svg"
   enable-background="new"
   inkscape:export-filename="/home/nahuelwexd/Proyectos/unitube-logo.png"
   inkscape:export-xdpi="600"
   inkscape:export-ydpi="600">
  <defs
     id="defs2">
    <inkscape:perspective
       sodipodi:type="inkscape:persp3d"
       inkscape:vp_x="-1.7618497 : 12.430828 : 1"
       inkscape:vp_y="0 : 1000 : 0"
       inkscape:vp_z="32.104816 : 12.430828 : 1"
       inkscape:persp3d-origin="15.171483 : 6.7863841 : 1"
       id="perspective4809" />
    <linearGradient
       id="linearGradient4554"
       osb:paint="solid">
      <stop
         style="stop-color:#00adee;stop-opacity:1;"
         offset="0"
         id="stop4552" />
    </linearGradient>
    <linearGradient
       xlink:href="#linearGradient1036"
       id="linearGradient1099"
       gradientUnits="userSpaceOnUse"
       gradientTransform="translate(604.81684,170.58641)"
       x1="32"
       y1="236"
       x2="96"
       y2="236" />
    <linearGradient
       id="linearGradient1036">
      <stop
         style="stop-color:#d5d3cf;stop-opacity:1;"
         offset="0"
         id="stop1032" />
      <stop
         style="stop-color:#f6f5f4;stop-opacity:1"
         offset="1"
         id="stop1034" />
    </linearGradient>
    <radialGradient
       xlink:href="#linearGradient1069"
       id="radialGradient1103"
       gradientUnits="userSpaceOnUse"
       gradientTransform="matrix(0.88333331,0,0,0.88333331,-460.35018,463.11973)"
       cx="-244"
       cy="-76"
       fx="-244"
       fy="-76"
       r="32" />
    <linearGradient
       id="linearGradient1069">
      <stop
         style="stop-color:#d5d3cf;stop-opacity:1"
         offset="0"
         id="stop1065" />
      <stop
         style="stop-color:#949390;stop-opacity:1"
         offset="1"
         id="stop1067-1" />
    </linearGradient>
    <linearGradient
       gradientTransform="translate(-470.5864,432.81685)"
       xlink:href="#linearGradient1025"
       id="linearGradient1027"
       x1="64"
       y1="262.5"
       x2="64"
       y2="232"
       gradientUnits="userSpaceOnUse" />
    <linearGradient
       id="linearGradient1025">
      <stop
         style="stop-color:#9a9996;stop-opacity:1"
         offset="0"
         id="stop1021" />
      <stop
         style="stop-color:#77767b;stop-opacity:1"
         offset="1"
         id="stop1023" />
    </linearGradient>
    <inkscape:path-effect
       is_visible="true"
       id="path-effect35304-9"
       effect="spiro" />
    <clipPath
       id="clipPath1609-7"
       clipPathUnits="userSpaceOnUse">
      <path
         style="fill:#e74747;stroke:none;stroke-width:0.25px;stroke-linecap:butt;stroke-linejoin:miter;stroke-opacity:1"
         d="m 252,116 28,-28 v -8 h -36 v 36 z"
         id="path1611-5"
         inkscape:connector-curvature="0"
         sodipodi:nodetypes="cccccc" />
    </clipPath>
  </defs>
  <sodipodi:namedview
     id="base"
     pagecolor="#ffffff"
     bordercolor="#666666"
     borderopacity="1.0"
     inkscape:pageopacity="0.0"
     inkscape:pageshadow="2"
     inkscape:zoom="4.3249999"
     inkscape:cx="63.999998"
     inkscape:cy="64.000002"
     inkscape:document-units="px"
     inkscape:current-layer="layer6"
     showgrid="false"
     inkscape:window-width="1366"
     inkscape:window-height="704"
     inkscape:window-x="0"
     inkscape:window-y="32"
     inkscape:window-maximized="1"
     inkscape:pagecheckerboard="true"
     inkscape:showpageshadow="false"
     units="px" />
  <metadata
     id="metadata5">
    <rdf:RDF>
      <cc:Work
         rdf:about="">
        <dc:format>image/svg+xml</dc:format>
        <dc:type
           rdf:resource="http://purl.org/dc/dcmitype/StillImage" />
        <dc:title></dc:title>
      </cc:Work>
    </rdf:RDF>
  </metadata>
  <g
     inkscape:groupmode="layer"
     id="layer6"
     inkscape:label="UniTube"
     transform="translate(-2.4514006e-8,-2.8987731)">
    <circle
       r="15.875"
       cy="19.832106"
       cx="16.933332"
       id="circle4590"
       style="fill:#ed333b;fill-opacity:1;fill-rule:nonzero;stroke:none;stroke-width:0.75458658;stroke-linecap:round;stroke-linejoin:round;stroke-miterlimit:4;stroke-dasharray:none;stroke-opacity:1;paint-order:normal;" />
    <path
       style="fill:#c01c28;fill-opacity:1;fill-rule:nonzero;stroke:none;stroke-width:2.85198069;stroke-linecap:round;stroke-linejoin:round;stroke-miterlimit:4;stroke-dasharray:none;stroke-opacity:1;paint-order:normal"
       d="M 123.91797,61.662109 A 60,60 0 0 1 64,120 60,60 0 0 1 4.0820312,62.337891 60,60 0 0 0 4,64 a 60,60 0 0 0 60,60 60,60 0 0 0 60,-60 60,60 0 0 0 -0.082,-2.337891 z"
       transform="matrix(0.26458333,0,0,0.26458333,2.4514006e-8,2.8987731)"
       id="circle4594"
       inkscape:connector-curvature="0" />
    <ellipse
       ry="14.2875"
       rx="14.816667"
       cy="19.30294"
       cx="16.933332"
       id="ellipse4761"
       style="opacity:1;fill:#f6f5f4;fill-opacity:1;fill-rule:nonzero;stroke:none;stroke-width:0.58917105;stroke-linecap:round;stroke-linejoin:round;stroke-miterlimit:4;stroke-dasharray:none;stroke-opacity:1;paint-order:normal" />
    <path
       style="opacity:1;fill:#c0bfbc;fill-opacity:1;fill-rule:nonzero;stroke:none;stroke-width:2.22678828;stroke-linecap:round;stroke-linejoin:round;stroke-miterlimit:4;stroke-dasharray:none;stroke-opacity:1;paint-order:normal"
       d="M 119.95703,60.830078 A 56,54.000002 0 0 1 64,114 56,54.000002 0 0 1 8.0429688,61.169922 56,54.000002 0 0 0 8,62 a 56,54.000002 0 0 0 56,54 56,54.000002 0 0 0 56,-54 56,54.000002 0 0 0 -0.043,-1.169922 z"
       transform="matrix(0.26458333,0,0,0.26458333,2.4514006e-8,2.8987731)"
       id="ellipse4780"
       inkscape:connector-curvature="0" />
    <path
       style="fill:#1f1e1d;fill-opacity:1;stroke:none;stroke-width:0.13229167;stroke-linecap:butt;stroke-linejoin:miter;stroke-miterlimit:4;stroke-dasharray:none;stroke-opacity:1"
       d="m 9.1681437,12.832628 c 0.5683431,-0.01033 0.7671364,0.446672 0.7585741,0.693321 l -0.252858,7.283943 c -0.1097785,3.16233 1.2601222,4.663664 3.4829162,4.641169 2.883213,-0.02918 3.81945,-1.760983 3.817341,-3.923378 -0.0027,-2.80319 -0.01143,-8.288551 -0.0082,-8.40957 0.0035,-0.130077 0.03913,-0.236026 0.13517,-0.313017 0.112923,-0.09052 0.264725,-0.126998 0.412388,-0.04326 l 10.252026,5.813807 c 0.10243,0.05809 0.239545,0.188106 0.250894,0.360479 0.0097,0.146688 -0.09641,0.279536 -0.227822,0.357595 l -11.350768,6.742402 c -0.850173,0.505006 -1.804306,0.871797 -3.195287,0.842079 -4.4223946,-0.09448 -5.232826,-2.856646 -5.1332224,-5.548494 0.097358,-2.631161 0.1947125,-5.262321 0.2920743,-7.893482 0.010263,-0.277353 0.2960893,-0.595042 0.7667738,-0.603594 z"
       id="path4856"
       inkscape:connector-curvature="0"
       sodipodi:nodetypes="ssssssssssssssss" />
    <path
       style="opacity:1;fill:#0b0a09;fill-opacity:1;stroke:none;stroke-width:0.13229167;stroke-linecap:butt;stroke-linejoin:miter;stroke-miterlimit:4;stroke-dasharray:none;stroke-opacity:1"
       d="m 16.965889,13.11572 c -2.7e-5,9e-4 2.4e-5,0.0017 0,0.0026 -0.0031,0.117346 0.0053,5.285219 0.0083,8.154024 0,-0.0031 2e-6,-0.0062 0,-0.0093 -0.0026,-2.715688 -0.01069,-7.713215 -0.0083,-8.147307 z m -7.0455643,0.319361 -0.2464967,7.11016 c -0.0072,0.207386 -0.00742,0.406826 -0.00206,0.599963 9.02e-5,-0.111131 -0.00193,-0.219819 0.00206,-0.33538 l 0.2526977,-7.283793 c 9.525e-4,-0.02769 -0.00172,-0.05892 -0.0062,-0.09095 z m 18.0655643,5.378483 c -0.03868,0.08744 -0.110702,0.163989 -0.197406,0.215491 l -11.350727,6.742224 c -0.850173,0.505006 -1.804173,0.872043 -3.195154,0.842325 -4.1044803,-0.08769 -5.0962373,-2.473582 -5.1381873,-4.968172 -0.023384,2.587895 0.8886499,5.141969 5.1381873,5.232756 1.390981,0.02972 2.344981,-0.33732 3.195154,-0.842326 l 11.350727,-6.742224 c 0.131414,-0.07806 0.237594,-0.210913 0.227894,-0.357601 -0.0029,-0.04376 -0.01402,-0.08465 -0.03049,-0.122473 z"
       id="path4862"
       inkscape:connector-curvature="0" />
  </g>
</svg>
