<?xml version="1.0" encoding="UTF-8"?>
<svg xmlns="http://www.w3.org/2000/svg" xmlns:xlink="http://www.w3.org/1999/xlink" width="128px" height="128px" viewBox="0 0 128 128" version="1.1">
<defs>
<linearGradient id="linear0" gradientUnits="userSpaceOnUse" x1="8.000027" y1="243.999985" x2="120.000031" y2="243.999985" gradientTransform="matrix(1,0,0,1,0,-172)">
<stop offset="0" style="stop-color:rgb(0%,0%,0%);stop-opacity:1;"/>
<stop offset="0.05" style="stop-color:rgb(14.117648%,12.156863%,19.215687%);stop-opacity:1;"/>
<stop offset="0.1" style="stop-color:rgb(0%,0%,0%);stop-opacity:1;"/>
<stop offset="0.875" style="stop-color:rgb(0%,0%,0%);stop-opacity:1;"/>
<stop offset="0.9375" style="stop-color:rgb(14.117648%,12.156863%,19.215687%);stop-opacity:1;"/>
<stop offset="1" style="stop-color:rgb(0%,0%,0%);stop-opacity:1;"/>
</linearGradient>
</defs>
<g id="surface2370">
<path style=" stroke:none;fill-rule:nonzero;fill:url(#linear0);" d="M 16 28 L 112 28 C 116.417969 28 120 31.582031 120 36 L 120 108 C 120 112.417969 116.417969 116 112 116 L 16 116 C 11.582031 116 8 112.417969 8 108 L 8 36 C 8 31.582031 11.582031 28 16 28 Z M 16 28 "/>
<path style=" stroke:none;fill-rule:nonzero;fill:rgb(14.117648%,12.156863%,19.215687%);fill-opacity:1;" d="M 16 28 C 11.566406 28 8 31.566406 8 36 L 8 104 C 8 108.433594 11.566406 112 16 112 L 112 112 C 116.433594 112 120 108.433594 120 104 L 120 36 C 120 31.566406 116.433594 28 112 28 Z M 16 28 "/>
<path style=" stroke:none;fill-rule:nonzero;fill:rgb(0%,0%,0%);fill-opacity:0.498039;" d="M 38 96 C 36.574219 96 35.253906 96.765625 34.542969 98 L 8 98 L 8 102 L 34.542969 102 C 35.253906 103.234375 36.574219 104 38 104 C 39.425781 104 40.746094 103.234375 41.457031 102 L 120 102 L 120 98 L 41.457031 98 C 40.746094 96.765625 39.425781 96 38 96 Z M 38 96 "/>
<path style=" stroke:none;fill-rule:nonzero;fill:rgb(60.392159%,60.000002%,58.823532%);fill-opacity:1;" d="M 8 96 L 120 96 L 120 100 L 8 100 Z M 8 96 "/>
<path style=" stroke:none;fill-rule:nonzero;fill:rgb(87.843138%,10.588235%,14.117648%);fill-opacity:1;" d="M 8 96 L 38 96 L 38 100 L 8 100 Z M 8 96 "/>
<path style=" stroke:none;fill-rule:nonzero;fill:rgb(75.294119%,74.901962%,73.725492%);fill-opacity:1;" d="M 38 96 L 80.25 96 L 80.25 100 L 38 100 Z M 38 96 "/>
<path style=" stroke:none;fill-rule:nonzero;fill:rgb(100%,100%,100%);fill-opacity:1;" d="M 42 98 C 42 100.210938 40.210938 102 38 102 C 35.789062 102 34 100.210938 34 98 C 34 95.789062 35.789062 94 38 94 C 40.210938 94 42 95.789062 42 98 Z M 42 98 "/>
<path style=" stroke:none;fill-rule:nonzero;fill:rgb(0%,0%,0%);fill-opacity:0.498039;" d="M 74.824219 72 L 53.175781 84.5 L 53.175781 59.5 Z M 74.824219 72 "/>
<path style=" stroke:none;fill-rule:nonzero;fill:rgb(100%,100%,100%);fill-opacity:1;" d="M 74.824219 70 L 53.175781 82.5 L 53.175781 57.5 Z M 74.824219 70 "/>
</g>
</svg>
