<?xml version="1.0" encoding="UTF-8"?>
<svg xmlns="http://www.w3.org/2000/svg" xmlns:xlink="http://www.w3.org/1999/xlink" width="128px" height="128px" viewBox="0 0 128 128" version="1.1">
<defs>
<linearGradient id="linear0" gradientUnits="userSpaceOnUse" x1="8.000027" y1="243.999985" x2="120.000031" y2="243.999985" gradientTransform="matrix(1,0,0,1,0,-172)">
<stop offset="0" style="stop-color:rgb(0%,0%,0%);stop-opacity:1;"/>
<stop offset="0.05" style="stop-color:rgb(14.117648%,12.156863%,19.215687%);stop-opacity:1;"/>
<stop offset="0.1" style="stop-color:rgb(0%,0%,0%);stop-opacity:1;"/>
<stop offset="0.875" style="stop-color:rgb(0%,0%,0%);stop-opacity:1;"/>
<stop offset="0.9375" style="stop-color:rgb(14.117648%,12.156863%,19.215687%);stop-opacity:1;"/>
<stop offset="1" style="stop-color:rgb(0%,0%,0%);stop-opacity:1;"/>
</linearGradient>
<linearGradient id="linear1" gradientUnits="userSpaceOnUse" x1="8.000027" y1="243.999985" x2="120.000031" y2="243.999985" gradientTransform="matrix(1,0,0,1,0,-172)">
<stop offset="0" style="stop-color:rgb(0%,0%,0%);stop-opacity:1;"/>
<stop offset="0.05" style="stop-color:rgb(14.117648%,12.156863%,19.215687%);stop-opacity:1;"/>
<stop offset="0.1" style="stop-color:rgb(0%,0%,0%);stop-opacity:1;"/>
<stop offset="0.875" style="stop-color:rgb(0%,0%,0%);stop-opacity:1;"/>
<stop offset="0.9375" style="stop-color:rgb(14.117648%,12.156863%,19.215687%);stop-opacity:1;"/>
<stop offset="1" style="stop-color:rgb(0%,0%,0%);stop-opacity:1;"/>
</linearGradient>
<clipPath id="clip2">
  <rect x="0" y="0" width="128" height="128"/>
</clipPath>
<g id="surface2426" clip-path="url(#clip2)">
<path style=" stroke:none;fill-rule:nonzero;fill:url(#linear1);" d="M 16 28 L 112 28 C 116.417969 28 120 31.582031 120 36 L 120 108 C 120 112.417969 116.417969 116 112 116 L 16 116 C 11.582031 116 8 112.417969 8 108 L 8 36 C 8 31.582031 11.582031 28 16 28 Z M 16 28 "/>
<path style=" stroke:none;fill-rule:nonzero;fill:rgb(14.117648%,12.156863%,19.215687%);fill-opacity:1;" d="M 16 28 C 11.566406 28 8 31.566406 8 36 L 8 104 C 8 108.433594 11.566406 112 16 112 L 112 112 C 116.433594 112 120 108.433594 120 104 L 120 36 C 120 31.566406 116.433594 28 112 28 Z M 16 28 "/>
<path style=" stroke:none;fill-rule:nonzero;fill:rgb(0%,0%,0%);fill-opacity:0.498039;" d="M 38 96 C 36.574219 96 35.253906 96.765625 34.542969 98 L 8 98 L 8 102 L 34.542969 102 C 35.253906 103.234375 36.574219 104 38 104 C 39.425781 104 40.746094 103.234375 41.457031 102 L 120 102 L 120 98 L 41.457031 98 C 40.746094 96.765625 39.425781 96 38 96 Z M 38 96 "/>
<path style=" stroke:none;fill-rule:nonzero;fill:rgb(60.392159%,60.000002%,58.823532%);fill-opacity:1;" d="M 8 96 L 120 96 L 120 100 L 8 100 Z M 8 96 "/>
<path style=" stroke:none;fill-rule:nonzero;fill:rgb(87.843138%,10.588235%,14.117648%);fill-opacity:1;" d="M 8 96 L 38 96 L 38 100 L 8 100 Z M 8 96 "/>
<path style=" stroke:none;fill-rule:nonzero;fill:rgb(75.294119%,74.901962%,73.725492%);fill-opacity:1;" d="M 38 96 L 80.25 96 L 80.25 100 L 38 100 Z M 38 96 "/>
<path style=" stroke:none;fill-rule:nonzero;fill:rgb(100%,100%,100%);fill-opacity:1;" d="M 42 98 C 42 100.210938 40.210938 102 38 102 C 35.789062 102 34 100.210938 34 98 C 34 95.789062 35.789062 94 38 94 C 40.210938 94 42 95.789062 42 98 Z M 42 98 "/>
<path style=" stroke:none;fill-rule:nonzero;fill:rgb(0%,0%,0%);fill-opacity:0.498039;" d="M 74.824219 72 L 53.175781 84.5 L 53.175781 59.5 Z M 74.824219 72 "/>
<path style=" stroke:none;fill-rule:nonzero;fill:rgb(100%,100%,100%);fill-opacity:1;" d="M 74.824219 70 L 53.175781 82.5 L 53.175781 57.5 Z M 74.824219 70 "/>
</g>
<clipPath id="clip1">
  <rect x="0" y="0" width="128" height="128"/>
</clipPath>
<filter id="alpha" filterUnits="objectBoundingBox" x="0%" y="0%" width="100%" height="100%">
  <feColorMatrix type="matrix" in="SourceGraphic" values="0 0 0 0 1 0 0 0 0 1 0 0 0 0 1 0 0 0 1 0"/>
</filter>
<g id="surface2429" clip-path="url(#clip1)" filter="url(#alpha)">
<use xlink:href="#surface2426"/>
</g>
<mask id="mask0">
<use xlink:href="#surface2429"/>
</mask>
<mask id="mask1">
  <g filter="url(#alpha)">
<rect x="0" y="0" width="128" height="128" style="fill:rgb(0%,0%,0%);fill-opacity:0.8;stroke:none;"/>
  </g>
</mask>
<linearGradient id="linear2" gradientUnits="userSpaceOnUse" x1="300" y1="235" x2="428" y2="235" gradientTransform="matrix(0.000000000000000023,0.37,-0.98462,0.00000000000000006,295.38501,-30.360001)">
<stop offset="0" style="stop-color:rgb(97.647059%,94.117647%,41.960785%);stop-opacity:1;"/>
<stop offset="1" style="stop-color:rgb(96.078432%,76.078433%,6.666667%);stop-opacity:1;"/>
</linearGradient>
<clipPath id="clip4">
  <rect x="0" y="0" width="128" height="128"/>
</clipPath>
<g id="surface2423" clip-path="url(#clip4)">
<path style=" stroke:none;fill-rule:nonzero;fill:url(#linear2);" d="M 128 80.640625 L 128 128 L 0 128 L 0 80.640625 Z M 128 80.640625 "/>
<path style=" stroke:none;fill-rule:nonzero;fill:rgb(0%,0%,0%);fill-opacity:1;" d="M 13.308594 80.640625 L 60.664062 128 L 81.878906 128 L 34.519531 80.640625 Z M 55.730469 80.640625 L 103.09375 128 L 124.308594 128 L 76.945312 80.640625 Z M 98.160156 80.640625 L 128 110.480469 L 128 89.269531 L 119.371094 80.640625 Z M 0 88.546875 L 0 109.761719 L 18.238281 128 L 39.453125 128 Z M 0 88.546875 "/>
</g>
<clipPath id="clip3">
  <rect x="0" y="0" width="128" height="128"/>
</clipPath>
<g id="surface2428" clip-path="url(#clip3)">
<use xlink:href="#surface2423" mask="url(#mask1)"/>
</g>
</defs>
<g id="surface2396">
<path style=" stroke:none;fill-rule:nonzero;fill:url(#linear0);" d="M 16 28 L 112 28 C 116.417969 28 120 31.582031 120 36 L 120 108 C 120 112.417969 116.417969 116 112 116 L 16 116 C 11.582031 116 8 112.417969 8 108 L 8 36 C 8 31.582031 11.582031 28 16 28 Z M 16 28 "/>
<path style=" stroke:none;fill-rule:nonzero;fill:rgb(14.117648%,12.156863%,19.215687%);fill-opacity:1;" d="M 16 28 C 11.566406 28 8 31.566406 8 36 L 8 104 C 8 108.433594 11.566406 112 16 112 L 112 112 C 116.433594 112 120 108.433594 120 104 L 120 36 C 120 31.566406 116.433594 28 112 28 Z M 16 28 "/>
<path style=" stroke:none;fill-rule:nonzero;fill:rgb(0%,0%,0%);fill-opacity:0.498039;" d="M 38 96 C 36.574219 96 35.253906 96.765625 34.542969 98 L 8 98 L 8 102 L 34.542969 102 C 35.253906 103.234375 36.574219 104 38 104 C 39.425781 104 40.746094 103.234375 41.457031 102 L 120 102 L 120 98 L 41.457031 98 C 40.746094 96.765625 39.425781 96 38 96 Z M 38 96 "/>
<path style=" stroke:none;fill-rule:nonzero;fill:rgb(60.392159%,60.000002%,58.823532%);fill-opacity:1;" d="M 8 96 L 120 96 L 120 100 L 8 100 Z M 8 96 "/>
<path style=" stroke:none;fill-rule:nonzero;fill:rgb(87.843138%,10.588235%,14.117648%);fill-opacity:1;" d="M 8 96 L 38 96 L 38 100 L 8 100 Z M 8 96 "/>
<path style=" stroke:none;fill-rule:nonzero;fill:rgb(75.294119%,74.901962%,73.725492%);fill-opacity:1;" d="M 38 96 L 80.25 96 L 80.25 100 L 38 100 Z M 38 96 "/>
<path style=" stroke:none;fill-rule:nonzero;fill:rgb(100%,100%,100%);fill-opacity:1;" d="M 42 98 C 42 100.210938 40.210938 102 38 102 C 35.789062 102 34 100.210938 34 98 C 34 95.789062 35.789062 94 38 94 C 40.210938 94 42 95.789062 42 98 Z M 42 98 "/>
<path style=" stroke:none;fill-rule:nonzero;fill:rgb(0%,0%,0%);fill-opacity:0.498039;" d="M 74.824219 72 L 53.175781 84.5 L 53.175781 59.5 Z M 74.824219 72 "/>
<path style=" stroke:none;fill-rule:nonzero;fill:rgb(100%,100%,100%);fill-opacity:1;" d="M 74.824219 70 L 53.175781 82.5 L 53.175781 57.5 Z M 74.824219 70 "/>
<use xlink:href="#surface2428" mask="url(#mask0)"/>
</g>
</svg>
