<?xml version="1.0" encoding="UTF-8"?>
<svg height="128px" viewBox="0 0 128 128" width="128px" xmlns="http://www.w3.org/2000/svg" xmlns:xlink="http://www.w3.org/1999/xlink">
    <linearGradient id="a" gradientTransform="matrix(0.232143 0 0 0.328947 -8.566925 263.826965)" gradientUnits="userSpaceOnUse" x1="88.595886" x2="536.595886" y1="-449.394012" y2="-449.394012">
        <stop offset="0" stop-color="#d5d3cf"/>
        <stop offset="0.0357143" stop-color="#e4e1de"/>
        <stop offset="0.0714286" stop-color="#d5d3cf"/>
        <stop offset="0.928571" stop-color="#d5d3cf"/>
        <stop offset="0.964286" stop-color="#e4e1de"/>
        <stop offset="1" stop-color="#d5d3cf"/>
    </linearGradient>
    <linearGradient id="b" gradientTransform="matrix(0.999976 0 0 0.928572 0.001287 -157.714317)" gradientUnits="userSpaceOnUse" x1="28" x2="107.50499" y1="244.78566" y2="223.911652">
        <stop offset="0" stop-color="#e42c30"/>
        <stop offset="0.422471" stop-color="#e01b24"/>
        <stop offset="1" stop-color="#f63f8e"/>
    </linearGradient>
    <linearGradient id="c" gradientTransform="matrix(-0.999976 0 0 0.914723 127.998261 -154.121005)" gradientUnits="userSpaceOnUse" x1="28" x2="74.351265" y1="213.260147" y2="255.947556">
        <stop offset="0" stop-color="#f54981"/>
        <stop offset="1" stop-color="#f66151" stop-opacity="0.14395"/>
    </linearGradient>
    <linearGradient id="d" gradientTransform="matrix(-0.999976 0 0 0.914723 127.999337 -154.121005)" gradientUnits="userSpaceOnUse" x1="102.792847" x2="64.000343" y1="214.181122" y2="255.94754">
        <stop offset="0" stop-color="#ff7800" stop-opacity="0.726846"/>
        <stop offset="1" stop-color="#f3a64a" stop-opacity="0.005373"/>
    </linearGradient>
    <clipPath id="e">
        <rect height="128" width="128"/>
    </clipPath>
    <clipPath id="f">
        <rect height="128" width="128"/>
    </clipPath>
    <filter id="g" height="100%" width="100%" x="0%" y="0%">
        <feColorMatrix in="SourceGraphic" type="matrix" values="0 0 0 0 1 0 0 0 0 1 0 0 0 0 1 0 0 0 1 0"/>
    </filter>
    <mask id="h">
        <g clip-path="url(#f)" filter="url(#g)">
            <g clip-path="url(#e)">
                <path d="m 20 16 h 88 c 4.417969 0 8 3.582031 8 8 v 84 c 0 4.417969 -3.582031 8 -8 8 h -88 c -4.417969 0 -8 -3.582031 -8 -8 v -84 c 0 -4.417969 3.582031 -8 8 -8 z m 0 0" fill="url(#a)"/>
                <path d="m 20 12 h 88 c 4.417969 0 8 3.511719 8 7.839844 v 82.320312 c 0 4.328125 -3.582031 7.839844 -8 7.839844 h -88 c -4.417969 0 -8 -3.511719 -8 -7.839844 v -82.320312 c 0 -4.328125 3.582031 -7.839844 8 -7.839844 z m 0 0" fill="#f6f5f4"/>
                <path d="m 24.777344 20 h 78.445312 c 2.640625 0 4.777344 2.136719 4.777344 4.777344 v 58.445312 c 0 2.640625 -2.136719 4.777344 -4.777344 4.777344 h -78.445312 c -2.640625 0 -4.777344 -2.136719 -4.777344 -4.777344 v -58.445312 c 0 -2.640625 2.136719 -4.777344 4.777344 -4.777344 z m 0 0" fill="#3d3846"/>
                <path d="m 96 96 h 8 v 8 h -8 z m 0 0" fill="#77767b"/>
                <path d="m 96 94 h 8 v 8 h -8 z m 0 0" fill="#c0bfbc"/>
                <path d="m 88 100 c 0 2.210938 -1.789062 4 -4 4 s -4 -1.789062 -4 -4 s 1.789062 -4 4 -4 s 4 1.789062 4 4 z m 0 0" fill="#77767b"/>
                <path d="m 88 98 c 0 2.210938 -1.789062 4 -4 4 s -4 -1.789062 -4 -4 s 1.789062 -4 4 -4 s 4 1.789062 4 4 z m 0 0" fill="#c0bfbc"/>
                <path d="m 72 100 c 0 2.210938 -1.789062 4 -4 4 s -4 -1.789062 -4 -4 s 1.789062 -4 4 -4 s 4 1.789062 4 4 z m 0 0" fill="#77767b"/>
                <path d="m 72 98 c 0 2.210938 -1.789062 4 -4 4 s -4 -1.789062 -4 -4 s 1.789062 -4 4 -4 s 4 1.789062 4 4 z m 0 0" fill="#c0bfbc"/>
                <path d="m 56 100 c 0 2.210938 -1.789062 4 -4 4 s -4 -1.789062 -4 -4 s 1.789062 -4 4 -4 s 4 1.789062 4 4 z m 0 0" fill="#77767b"/>
                <path d="m 56 98 c 0 2.210938 -1.789062 4 -4 4 s -4 -1.789062 -4 -4 s 1.789062 -4 4 -4 s 4 1.789062 4 4 z m 0 0" fill="#c0bfbc"/>
                <path d="m 29 94 h 6 c 2.761719 0 5 2.238281 5 5 s -2.238281 5 -5 5 h -6 c -2.761719 0 -5 -2.238281 -5 -5 s 2.238281 -5 5 -5 z m 0 0" fill="#5e5c64"/>
                <path d="m 40 28 h 48 c 6.625 0 12 4.988281 12 11.144531 v 29.710938 c 0 6.15625 -5.375 11.144531 -12 11.144531 h -48 c -6.625 0 -12 -4.988281 -12 -11.144531 v -29.710938 c 0 -6.15625 5.375 -11.144531 12 -11.144531 z m 0 0" fill="url(#b)"/>
                <path d="m 64 54 c -21.0625 -0.238281 -36 -12.496094 -36 -12.496094 l 0.230469 8.042969 l -0.230469 20.039063 c -0.03125 2.652343 1.121094 4.699218 2.828125 6.472656 c 2.207031 2.289062 5.425781 3.941406 9.171875 3.941406 h 48 c 6.648438 0 12 -4.808594 12 -10.890625 v -27.144531 s -1.503906 1.691406 -4.863281 3.921875 c -5.296875 3.527343 -14.875 8.296875 -31.136719 8.113281 z m 0 0" fill="url(#c)"/>
                <path d="m 64 54 c -21.0625 -0.238281 -36 -12.496094 -36 -12.496094 v 27.257813 c 0 6.078125 5.355469 11.238281 12 11.238281 h 48 c 4.695312 0 8.746094 -2.160156 10.71875 -5.574219 c 0.820312 -1.417969 1.28125 -3.054687 1.28125 -4.839843 v -27.621094 s -1.503906 1.691406 -4.859375 3.921875 c -5.296875 3.527343 -14.878906 8.296875 -31.140625 8.113281 z m 0 0" fill="url(#d)"/>
                <path d="m 56 68 v -28 l 24 14 z m 0 0" fill="#ffffff"/>
            </g>
        </g>
    </mask>
    <mask id="i">
        <g filter="url(#g)">
            <rect fill-opacity="0.8" height="128" width="128"/>
        </g>
    </mask>
    <linearGradient id="j" gradientTransform="matrix(0 0.37 -0.98462 0 295.38501 -30.360001)" gradientUnits="userSpaceOnUse" x1="300" x2="428" y1="235" y2="235">
        <stop offset="0" stop-color="#f9f06b"/>
        <stop offset="1" stop-color="#f5c211"/>
    </linearGradient>
    <clipPath id="k">
        <rect height="128" width="128"/>
    </clipPath>
    <clipPath id="l">
        <rect height="128" width="128"/>
    </clipPath>
    <path d="m 20 16 h 88 c 4.417969 0 8 3.582031 8 8 v 84 c 0 4.417969 -3.582031 8 -8 8 h -88 c -4.417969 0 -8 -3.582031 -8 -8 v -84 c 0 -4.417969 3.582031 -8 8 -8 z m 0 0" fill="url(#a)"/>
    <path d="m 20 12 h 88 c 4.417969 0 8 3.511719 8 7.839844 v 82.320312 c 0 4.328125 -3.582031 7.839844 -8 7.839844 h -88 c -4.417969 0 -8 -3.511719 -8 -7.839844 v -82.320312 c 0 -4.328125 3.582031 -7.839844 8 -7.839844 z m 0 0" fill="#f6f5f4"/>
    <path d="m 24.777344 20 h 78.445312 c 2.640625 0 4.777344 2.136719 4.777344 4.777344 v 58.445312 c 0 2.640625 -2.136719 4.777344 -4.777344 4.777344 h -78.445312 c -2.640625 0 -4.777344 -2.136719 -4.777344 -4.777344 v -58.445312 c 0 -2.640625 2.136719 -4.777344 4.777344 -4.777344 z m 0 0" fill="#3d3846"/>
    <path d="m 96 96 h 8 v 8 h -8 z m 0 0" fill="#77767b"/>
    <path d="m 96 94 h 8 v 8 h -8 z m 0 0" fill="#c0bfbc"/>
    <path d="m 88 100 c 0 2.210938 -1.789062 4 -4 4 s -4 -1.789062 -4 -4 s 1.789062 -4 4 -4 s 4 1.789062 4 4 z m 0 0" fill="#77767b"/>
    <path d="m 88 98 c 0 2.210938 -1.789062 4 -4 4 s -4 -1.789062 -4 -4 s 1.789062 -4 4 -4 s 4 1.789062 4 4 z m 0 0" fill="#c0bfbc"/>
    <path d="m 72 100 c 0 2.210938 -1.789062 4 -4 4 s -4 -1.789062 -4 -4 s 1.789062 -4 4 -4 s 4 1.789062 4 4 z m 0 0" fill="#77767b"/>
    <path d="m 72 98 c 0 2.210938 -1.789062 4 -4 4 s -4 -1.789062 -4 -4 s 1.789062 -4 4 -4 s 4 1.789062 4 4 z m 0 0" fill="#c0bfbc"/>
    <path d="m 56 100 c 0 2.210938 -1.789062 4 -4 4 s -4 -1.789062 -4 -4 s 1.789062 -4 4 -4 s 4 1.789062 4 4 z m 0 0" fill="#77767b"/>
    <path d="m 56 98 c 0 2.210938 -1.789062 4 -4 4 s -4 -1.789062 -4 -4 s 1.789062 -4 4 -4 s 4 1.789062 4 4 z m 0 0" fill="#c0bfbc"/>
    <path d="m 29 94 h 6 c 2.761719 0 5 2.238281 5 5 s -2.238281 5 -5 5 h -6 c -2.761719 0 -5 -2.238281 -5 -5 s 2.238281 -5 5 -5 z m 0 0" fill="#5e5c64"/>
    <path d="m 40 28 h 48 c 6.625 0 12 4.988281 12 11.144531 v 29.710938 c 0 6.15625 -5.375 11.144531 -12 11.144531 h -48 c -6.625 0 -12 -4.988281 -12 -11.144531 v -29.710938 c 0 -6.15625 5.375 -11.144531 12 -11.144531 z m 0 0" fill="url(#b)"/>
    <path d="m 64 54 c -21.0625 -0.238281 -36 -12.496094 -36 -12.496094 l 0.230469 8.042969 l -0.230469 20.039063 c -0.03125 2.652343 1.121094 4.699218 2.828125 6.472656 c 2.207031 2.289062 5.425781 3.941406 9.171875 3.941406 h 48 c 6.648438 0 12 -4.808594 12 -10.890625 v -27.144531 s -1.503906 1.691406 -4.863281 3.921875 c -5.296875 3.527343 -14.875 8.296875 -31.136719 8.113281 z m 0 0" fill="url(#c)"/>
    <path d="m 64 54 c -21.0625 -0.238281 -36 -12.496094 -36 -12.496094 v 27.257813 c 0 6.078125 5.355469 11.238281 12 11.238281 h 48 c 4.695312 0 8.746094 -2.160156 10.71875 -5.574219 c 0.820312 -1.417969 1.28125 -3.054687 1.28125 -4.839843 v -27.621094 s -1.503906 1.691406 -4.859375 3.921875 c -5.296875 3.527343 -14.878906 8.296875 -31.140625 8.113281 z m 0 0" fill="url(#d)"/>
    <path d="m 56 68 v -28 l 24 14 z m 0 0" fill="#ffffff"/>
    <g clip-path="url(#l)" mask="url(#h)">
        <g clip-path="url(#k)" mask="url(#i)">
            <path d="m 128 80.640625 v 47.359375 h -128 v -47.359375 z m 0 0" fill="url(#j)"/>
            <path d="m 13.308594 80.640625 l 47.355468 47.359375 h 21.214844 l -47.359375 -47.359375 z m 42.421875 0 l 47.363281 47.359375 h 21.214844 l -47.363282 -47.359375 z m 42.429687 0 l 29.839844 29.839844 v -21.210938 l -8.628906 -8.628906 z m -98.160156 7.90625 v 21.214844 l 18.238281 18.238281 h 21.214844 z m 0 0"/>
        </g>
    </g>
</svg>
