<?xml version="1.0" encoding="UTF-8"?>
<svg height="128px" viewBox="0 0 128 128" width="128px" xmlns="http://www.w3.org/2000/svg" xmlns:xlink="http://www.w3.org/1999/xlink">
    <linearGradient id="a" gradientTransform="matrix(0.232143 0 0 0.328947 -8.566925 263.826965)" gradientUnits="userSpaceOnUse" x1="88.595886" x2="536.595886" y1="-449.394012" y2="-449.394012">
        <stop offset="0" stop-color="#3d3846"/>
        <stop offset="0.0384615" stop-color="#5e5c64"/>
        <stop offset="0.0768555" stop-color="#3d3846"/>
        <stop offset="0.923077" stop-color="#3d3846"/>
        <stop offset="0.961538" stop-color="#5e5c64"/>
        <stop offset="1" stop-color="#3d3846"/>
    </linearGradient>
    <linearGradient id="b" gradientUnits="userSpaceOnUse" x1="28" x2="107.50499" y1="72.78566" y2="51.911652">
        <stop offset="0" stop-color="#e42c30"/>
        <stop offset="0.422471" stop-color="#e01b24"/>
        <stop offset="1" stop-color="#f63f8e"/>
    </linearGradient>
    <linearGradient id="c" gradientTransform="matrix(-1 0 0 0.985086 128 -168.130281)" gradientUnits="userSpaceOnUse" x1="28" x2="74.351265" y1="213.260147" y2="255.947556">
        <stop offset="0" stop-color="#f54981"/>
        <stop offset="1" stop-color="#f66151" stop-opacity="0.14395"/>
    </linearGradient>
    <linearGradient id="d" gradientTransform="matrix(1 0 0 0.985086 0 -168.736955)" gradientUnits="userSpaceOnUse" x1="20.514896" x2="100" y1="222.416107" y2="256.563385">
        <stop offset="0" stop-color="#ff7800" stop-opacity="0.726846"/>
        <stop offset="1" stop-color="#f3a64a" stop-opacity="0.005373"/>
    </linearGradient>
    <path d="m 20 16 h 88 c 4.417969 0 8 3.582031 8 8 v 84 c 0 4.417969 -3.582031 8 -8 8 h -88 c -4.417969 0 -8 -3.582031 -8 -8 v -84 c 0 -4.417969 3.582031 -8 8 -8 z m 0 0" fill="url(#a)"/>
    <path d="m 20 12 h 88 c 4.417969 0 8 3.582031 8 8 v 84 c 0 4.417969 -3.582031 8 -8 8 h -88 c -4.417969 0 -8 -3.582031 -8 -8 v -84 c 0 -4.417969 3.582031 -8 8 -8 z m 0 0" fill="#5e5c64"/>
    <path d="m 20 12 h 88 c 4.417969 0 8 2.867188 8 6.398438 v 67.203124 c 0 3.53125 -3.582031 6.398438 -8 6.398438 h -88 c -4.417969 0 -8 -2.867188 -8 -6.398438 v -67.203124 c 0 -3.53125 3.582031 -6.398438 8 -6.398438 z m 0 0" fill="#5e5c64"/>
    <path d="m 28.496094 24 h 71.007812 c 2.484375 0 4.496094 2.011719 4.496094 4.496094 v 55.007812 c 0 2.484375 -2.011719 4.496094 -4.496094 4.496094 h -71.007812 c -2.484375 0 -4.496094 -2.011719 -4.496094 -4.496094 v -55.007812 c 0 -2.484375 2.011719 -4.496094 4.496094 -4.496094 z m 0 0" fill="#241f31"/>
    <path d="m 40 28 h 48 c 6.628906 0 12 5.371094 12 12 v 32 c 0 6.628906 -5.371094 12 -12 12 h -48 c -6.628906 0 -12 -5.371094 -12 -12 v -32 c 0 -6.628906 5.371094 -12 12 -12 z m 0 0" fill="url(#b)"/>
    <path d="m 63.769531 60.246094 c -21.066406 -0.257813 -35.769531 -13.460938 -35.769531 -13.460938 v 26 c 0 6.550782 5.351562 11.214844 12 11.214844 h 48 c 6.648438 0 12 -4.664062 12 -11.214844 v -25.390625 s -1.734375 1.710938 -5.09375 4.113281 c -5.296875 3.796876 -14.875 8.9375 -31.136719 8.738282 z m 0 0" fill="url(#c)"/>
    <path d="m 64.738281 60.222656 c 11.898438 0.179688 21.914063 -4.011718 28.378907 -7.691406 c 4.980468 -2.835938 6.882812 -5.351562 6.882812 -5.351562 v 25 c 0 6.546874 -5.351562 11.820312 -12 11.820312 h -48 c -6.648438 0 -12.007812 -5.273438 -12 -11.820312 l 0.039062 -33.167969 s 11.6875 20.839843 36.699219 21.210937 z m 0 0" fill="url(#d)"/>
    <path d="m 96 96 h 8 v 8 h -8 z m 0 0" fill="#77767b"/>
    <path d="m 96 94 h 8 v 8 h -8 z m 0 0" fill="#c0bfbc"/>
    <path d="m 88 100 c 0 2.210938 -1.789062 4 -4 4 s -4 -1.789062 -4 -4 s 1.789062 -4 4 -4 s 4 1.789062 4 4 z m 0 0" fill="#77767b"/>
    <path d="m 88 98 c 0 2.210938 -1.789062 4 -4 4 s -4 -1.789062 -4 -4 s 1.789062 -4 4 -4 s 4 1.789062 4 4 z m 0 0" fill="#c0bfbc"/>
    <path d="m 72 100 c 0 2.210938 -1.789062 4 -4 4 s -4 -1.789062 -4 -4 s 1.789062 -4 4 -4 s 4 1.789062 4 4 z m 0 0" fill="#77767b"/>
    <path d="m 72 98 c 0 2.210938 -1.789062 4 -4 4 s -4 -1.789062 -4 -4 s 1.789062 -4 4 -4 s 4 1.789062 4 4 z m 0 0" fill="#c0bfbc"/>
    <path d="m 56 100 c 0 2.210938 -1.789062 4 -4 4 s -4 -1.789062 -4 -4 s 1.789062 -4 4 -4 s 4 1.789062 4 4 z m 0 0" fill="#77767b"/>
    <path d="m 56 98 c 0 2.210938 -1.789062 4 -4 4 s -4 -1.789062 -4 -4 s 1.789062 -4 4 -4 s 4 1.789062 4 4 z m 0 0" fill="#c0bfbc"/>
    <path d="m 29 94 h 6 c 2.761719 0 5 2.238281 5 5 s -2.238281 5 -5 5 h -6 c -2.761719 0 -5 -2.238281 -5 -5 s 2.238281 -5 5 -5 z m 0 0" fill="#241f31"/>
    <path d="m 56 70 v -28 l 24 14 z m 0 0" fill="#ffffff"/>
</svg>
