<?xml version="1.0" encoding="UTF-8"?>
<svg height="128px" viewBox="0 0 128 128" width="128px" xmlns="http://www.w3.org/2000/svg" xmlns:xlink="http://www.w3.org/1999/xlink">
    <linearGradient id="a" gradientUnits="userSpaceOnUse" x1="7.999901" x2="119.999905" y1="72.000077" y2="72.000077">
        <stop offset="0"/>
        <stop offset="0.05" stop-color="#241f31"/>
        <stop offset="0.1"/>
        <stop offset="0.875"/>
        <stop offset="0.9375" stop-color="#241f31"/>
        <stop offset="1"/>
    </linearGradient>
    <clipPath id="b">
        <rect height="128" width="128"/>
    </clipPath>
    <clipPath id="c">
        <rect height="128" width="128"/>
    </clipPath>
    <filter id="d" height="100%" width="100%" x="0%" y="0%">
        <feColorMatrix in="SourceGraphic" type="matrix" values="0 0 0 0 1 0 0 0 0 1 0 0 0 0 1 0 0 0 1 0"/>
    </filter>
    <mask id="e">
        <g clip-path="url(#c)" filter="url(#d)">
            <g clip-path="url(#b)">
                <path d="m 16 28 h 96 c 4.417969 0 8 3.582031 8 8 v 72 c 0 4.417969 -3.582031 8 -8 8 h -96 c -4.417969 0 -8 -3.582031 -8 -8 v -72 c 0 -4.417969 3.582031 -8 8 -8 z m 0 0" fill="url(#a)"/>
                <path d="m 16 28 c -4.433594 0 -8 3.566406 -8 8 v 68 c 0 4.433594 3.566406 8 8 8 h 96 c 4.433594 0 8 -3.566406 8 -8 v -68 c 0 -4.433594 -3.566406 -8 -8 -8 z m 0 0" fill="#231e30"/>
                <path d="m 38 96 c -1.425781 0 -2.746094 0.765625 -3.457031 2 h -26.542969 v 4 h 26.542969 c 0.710937 1.234375 2.03125 2 3.457031 2 s 2.746094 -0.765625 3.457031 -2 h 78.542969 v -4 h -78.542969 c -0.710937 -1.234375 -2.03125 -2 -3.457031 -2 z m 0 0" fill-opacity="0.498039"/>
                <path d="m 8 96 h 112 v 4 h -112 z m 0 0" fill="#999994"/>
                <path d="m 8 96 h 30 v 4 h -30 z m 0 0" fill="#de1923"/>
                <path d="m 38 96 h 42.25 v 4 h -42.25 z m 0 0" fill="#bfbdba"/>
                <path d="m 42 98 c 0 2.210938 -1.789062 4 -4 4 s -4 -1.789062 -4 -4 s 1.789062 -4 4 -4 s 4 1.789062 4 4 z m 0 0" fill="#ffffff"/>
                <path d="m 74.824219 72 l -21.648438 12.5 v -25 z m 0 0" fill-opacity="0.498039"/>
                <path d="m 74.824219 70 l -21.648438 12.5 v -25 z m 0 0" fill="#ffffff"/>
            </g>
        </g>
    </mask>
    <mask id="f">
        <g filter="url(#d)">
            <rect fill-opacity="0.8" height="128" width="128"/>
        </g>
    </mask>
    <linearGradient id="g" gradientTransform="matrix(0 0.37 -0.98462 0 295.38501 -30.360001)" gradientUnits="userSpaceOnUse" x1="300" x2="428" y1="235" y2="235">
        <stop offset="0" stop-color="#f9f06b"/>
        <stop offset="1" stop-color="#f5c211"/>
    </linearGradient>
    <clipPath id="h">
        <rect height="128" width="128"/>
    </clipPath>
    <clipPath id="i">
        <rect height="128" width="128"/>
    </clipPath>
    <path d="m 16 28 h 96 c 4.417969 0 8 3.582031 8 8 v 72 c 0 4.417969 -3.582031 8 -8 8 h -96 c -4.417969 0 -8 -3.582031 -8 -8 v -72 c 0 -4.417969 3.582031 -8 8 -8 z m 0 0" fill="url(#a)"/>
    <path d="m 16 28 c -4.433594 0 -8 3.566406 -8 8 v 68 c 0 4.433594 3.566406 8 8 8 h 96 c 4.433594 0 8 -3.566406 8 -8 v -68 c 0 -4.433594 -3.566406 -8 -8 -8 z m 0 0" fill="#231e30"/>
    <path d="m 38 96 c -1.425781 0 -2.746094 0.765625 -3.457031 2 h -26.542969 v 4 h 26.542969 c 0.710937 1.234375 2.03125 2 3.457031 2 s 2.746094 -0.765625 3.457031 -2 h 78.542969 v -4 h -78.542969 c -0.710937 -1.234375 -2.03125 -2 -3.457031 -2 z m 0 0" fill-opacity="0.498039"/>
    <path d="m 8 96 h 112 v 4 h -112 z m 0 0" fill="#999994"/>
    <path d="m 8 96 h 30 v 4 h -30 z m 0 0" fill="#de1923"/>
    <path d="m 38 96 h 42.25 v 4 h -42.25 z m 0 0" fill="#bfbdba"/>
    <path d="m 42 98 c 0 2.210938 -1.789062 4 -4 4 s -4 -1.789062 -4 -4 s 1.789062 -4 4 -4 s 4 1.789062 4 4 z m 0 0" fill="#ffffff"/>
    <path d="m 74.824219 72 l -21.648438 12.5 v -25 z m 0 0" fill-opacity="0.498039"/>
    <path d="m 74.824219 70 l -21.648438 12.5 v -25 z m 0 0" fill="#ffffff"/>
    <g clip-path="url(#i)" mask="url(#e)">
        <g clip-path="url(#h)" mask="url(#f)">
            <path d="m 128 80.640625 v 47.359375 h -128 v -47.359375 z m 0 0" fill="url(#g)"/>
            <path d="m 13.308594 80.640625 l 47.355468 47.359375 h 21.214844 l -47.359375 -47.359375 z m 42.421875 0 l 47.363281 47.359375 h 21.214844 l -47.363282 -47.359375 z m 42.429687 0 l 29.839844 29.839844 v -21.210938 l -8.628906 -8.628906 z m -98.160156 7.90625 v 21.214844 l 18.238281 18.238281 h 21.214844 z m 0 0"/>
        </g>
    </g>
</svg>
