<?xml version="1.0" encoding="UTF-8" standalone="no"?>
<svg
   xmlns:dc="http://purl.org/dc/elements/1.1/"
   xmlns:cc="http://creativecommons.org/ns#"
   xmlns:rdf="http://www.w3.org/1999/02/22-rdf-syntax-ns#"
   xmlns:svg="http://www.w3.org/2000/svg"
   xmlns="http://www.w3.org/2000/svg"
   xmlns:sodipodi="http://sodipodi.sourceforge.net/DTD/sodipodi-0.dtd"
   xmlns:inkscape="http://www.inkscape.org/namespaces/inkscape"
   width="205.31177"
   height="187.25601"
   viewBox="0 0 205.31177 187.25601"
   version="1.1"
   id="svg44"
   sodipodi:docname="repo-logo.svg"
   inkscape:version="0.92.4 5da689c313, 2019-01-14">
  <metadata
     id="metadata48">
    <rdf:RDF>
      <cc:Work
         rdf:about="">
        <dc:format>image/svg+xml</dc:format>
        <dc:type
           rdf:resource="http://purl.org/dc/dcmitype/StillImage" />
        <dc:title></dc:title>
        <dc:title />
      </cc:Work>
    </rdf:RDF>
  </metadata>
  <sodipodi:namedview
     pagecolor="#ffffff"
     bordercolor="#666666"
     borderopacity="1"
     objecttolerance="10"
     gridtolerance="10"
     guidetolerance="10"
     inkscape:pageopacity="0"
     inkscape:pageshadow="2"
     inkscape:window-width="1366"
     inkscape:window-height="704"
     id="namedview46"
     showgrid="false"
     inkscape:zoom="1.0039063"
     inkscape:cx="344.40057"
     inkscape:cy="72.298334"
     inkscape:window-x="0"
     inkscape:window-y="27"
     inkscape:window-maximized="1"
     inkscape:current-layer="svg44"
     fit-margin-top="40"
     fit-margin-left="10"
     fit-margin-right="10"
     fit-margin-bottom="10" />
  <defs
     id="defs23">
    <linearGradient
       id="linear0"
       gradientUnits="userSpaceOnUse"
       x1="8.0000267"
       y1="243.99998"
       x2="120.00003"
       y2="243.99998"
       gradientTransform="translate(0,-172)">
      <stop
         offset="0"
         style="stop-color:rgb(0%,0%,0%);stop-opacity:1;"
         id="stop10" />
      <stop
         offset="0.05"
         style="stop-color:rgb(14.117648%,12.156863%,19.215687%);stop-opacity:1;"
         id="stop12" />
      <stop
         offset="0.1"
         style="stop-color:rgb(0%,0%,0%);stop-opacity:1;"
         id="stop14" />
      <stop
         offset="0.875"
         style="stop-color:rgb(0%,0%,0%);stop-opacity:1;"
         id="stop16" />
      <stop
         offset="0.9375"
         style="stop-color:rgb(14.117648%,12.156863%,19.215687%);stop-opacity:1;"
         id="stop18" />
      <stop
         offset="1"
         style="stop-color:rgb(0%,0%,0%);stop-opacity:1;"
         id="stop20" />
    </linearGradient>
  </defs>
  <g
     id="surface2370"
     transform="translate(38.655885,12)">
    <path
       style="fill:url(#linear0);fill-rule:nonzero;stroke:none"
       d="m 16,28 h 96 c 4.41797,0 8,3.582031 8,8 v 72 c 0,4.41797 -3.58203,8 -8,8 H 16 c -4.417969,0 -8,-3.58203 -8,-8 V 36 c 0,-4.417969 3.582031,-8 8,-8 z m 0,0"
       id="path25"
       inkscape:connector-curvature="0" />
    <path
       style="fill:#231e30;fill-opacity:1;fill-rule:nonzero;stroke:none"
       d="m 16,28 c -4.433594,0 -8,3.566406 -8,8 v 68 c 0,4.43359 3.566406,8 8,8 h 96 c 4.43359,0 8,-3.56641 8,-8 V 36 c 0,-4.433594 -3.56641,-8 -8,-8 z m 0,0"
       id="path27"
       inkscape:connector-curvature="0" />
    <path
       style="fill:#000000;fill-opacity:0.49803904;fill-rule:nonzero;stroke:none"
       d="m 38,96 c -1.425781,0 -2.746094,0.765625 -3.457031,2 H 8 v 4 h 26.542969 c 0.710937,1.23438 2.03125,2 3.457031,2 1.425781,0 2.746094,-0.76562 3.457031,-2 H 120 V 98 H 41.457031 C 40.746094,96.765625 39.425781,96 38,96 Z m 0,0"
       id="path29"
       inkscape:connector-curvature="0" />
    <path
       style="fill:#999994;fill-opacity:1;fill-rule:nonzero;stroke:none"
       d="m 8,96 h 112 v 4 H 8 Z m 0,0"
       id="path31"
       inkscape:connector-curvature="0" />
    <path
       style="fill:#de1923;fill-opacity:1;fill-rule:nonzero;stroke:none"
       d="m 8,96 h 30 v 4 H 8 Z m 0,0"
       id="path33"
       inkscape:connector-curvature="0" />
    <path
       style="fill:#bfbdba;fill-opacity:1;fill-rule:nonzero;stroke:none"
       d="m 38,96 h 42.25 v 4 H 38 Z m 0,0"
       id="path35"
       inkscape:connector-curvature="0" />
    <path
       style="fill:#ffffff;fill-opacity:1;fill-rule:nonzero;stroke:none"
       d="m 42,98 c 0,2.21094 -1.789062,4 -4,4 -2.210938,0 -4,-1.78906 -4,-4 0,-2.210938 1.789062,-4 4,-4 2.210938,0 4,1.789062 4,4 z m 0,0"
       id="path37"
       inkscape:connector-curvature="0" />
    <path
       style="fill:#000000;fill-opacity:0.49803904;fill-rule:nonzero;stroke:none"
       d="M 74.824219,72 53.175781,84.5 v -25 z m 0,0"
       id="path39"
       inkscape:connector-curvature="0" />
    <path
       style="fill:#ffffff;fill-opacity:1;fill-rule:nonzero;stroke:none"
       d="M 74.824219,70 53.175781,82.5 v -25 z m 0,0"
       id="path41"
       inkscape:connector-curvature="0" />
  </g>
  <text
     xml:space="preserve"
     style="font-style:normal;font-variant:normal;font-weight:normal;font-stretch:normal;font-size:40px;line-height:1.25;font-family:Cantarell;-inkscape-font-specification:Cantarell;letter-spacing:0px;word-spacing:0px;fill:#000000;fill-opacity:1;stroke:none"
     x="8.3360004"
     y="176.936"
     id="text60"><tspan
       sodipodi:role="line"
       id="tspan58"
       x="8.3360004"
       y="176.936"
       style="font-style:normal;font-variant:normal;font-weight:800;font-stretch:normal;font-size:32px;font-family:Cantarell;-inkscape-font-specification:'Cantarell Ultra-Bold'">Unitube GTK</tspan></text>
</svg>
