<?xml version="1.0" encoding="UTF-8"?>
<svg height="128px" viewBox="0 0 128 128" width="128px" xmlns="http://www.w3.org/2000/svg" xmlns:xlink="http://www.w3.org/1999/xlink">
    <linearGradient id="a" gradientTransform="matrix(0.232143 0 0 0.328947 -8.566925 263.826965)" gradientUnits="userSpaceOnUse" x1="88.595886" x2="536.595886" y1="-449.394012" y2="-449.394012">
        <stop offset="0" stop-color="#9a9996"/>
        <stop offset="0.0357143" stop-color="#c0bfbc"/>
        <stop offset="0.0714286" stop-color="#9a9996"/>
        <stop offset="0.928571" stop-color="#9a9996"/>
        <stop offset="0.964286" stop-color="#c0bfbc"/>
        <stop offset="1" stop-color="#9a9996"/>
    </linearGradient>
    <linearGradient id="b" gradientTransform="matrix(0.999976 0 0 0.928572 0.001287 -157.714302)" gradientUnits="userSpaceOnUse" x1="28" x2="107.50499" y1="244.78566" y2="223.911652">
        <stop offset="0" stop-color="#e42c30"/>
        <stop offset="0.422471" stop-color="#e01b24"/>
        <stop offset="1" stop-color="#f63f8e"/>
    </linearGradient>
    <linearGradient id="c" gradientTransform="matrix(-0.999976 0 0 0.914723 127.998261 -154.12099)" gradientUnits="userSpaceOnUse" x1="28" x2="74.351265" y1="213.260147" y2="255.947556">
        <stop offset="0" stop-color="#f54981"/>
        <stop offset="1" stop-color="#f66151" stop-opacity="0.14395"/>
    </linearGradient>
    <linearGradient id="d" gradientTransform="matrix(-0.999976 0 0 0.914723 127.999337 -154.12099)" gradientUnits="userSpaceOnUse" x1="102.792847" x2="64.000343" y1="214.181122" y2="255.94754">
        <stop offset="0" stop-color="#ff7800" stop-opacity="0.726846"/>
        <stop offset="1" stop-color="#f3a64a" stop-opacity="0.005373"/>
    </linearGradient>
    <path d="m 20 16 h 88 c 4.417969 0 8 3.582031 8 8 v 84 c 0 4.417969 -3.582031 8 -8 8 h -88 c -4.417969 0 -8 -3.582031 -8 -8 v -84 c 0 -4.417969 3.582031 -8 8 -8 z m 0 0" fill="url(#a)"/>
    <path d="m 20 12 h 88 c 4.417969 0 8 3.582031 8 8 v 84 c 0 4.417969 -3.582031 8 -8 8 h -88 c -4.417969 0 -8 -3.582031 -8 -8 v -84 c 0 -4.417969 3.582031 -8 8 -8 z m 0 0" fill="#deddda"/>
    <path d="m 24.777344 20 h 78.445312 c 2.640625 0 4.777344 2.136719 4.777344 4.777344 v 58.445312 c 0 2.640625 -2.136719 4.777344 -4.777344 4.777344 h -78.445312 c -2.640625 0 -4.777344 -2.136719 -4.777344 -4.777344 v -58.445312 c 0 -2.640625 2.136719 -4.777344 4.777344 -4.777344 z m 0 0" fill="#241f31"/>
    <path d="m 96 96 h 8 v 8 h -8 z m 0 0" fill="#5e5c64"/>
    <path d="m 96 94 h 8 v 8 h -8 z m 0 0" fill="#9a9996"/>
    <path d="m 88 100 c 0 2.210938 -1.789062 4 -4 4 s -4 -1.789062 -4 -4 s 1.789062 -4 4 -4 s 4 1.789062 4 4 z m 0 0" fill="#5e5c64"/>
    <path d="m 88 98 c 0 2.210938 -1.789062 4 -4 4 s -4 -1.789062 -4 -4 s 1.789062 -4 4 -4 s 4 1.789062 4 4 z m 0 0" fill="#9a9996"/>
    <path d="m 72 100 c 0 2.210938 -1.789062 4 -4 4 s -4 -1.789062 -4 -4 s 1.789062 -4 4 -4 s 4 1.789062 4 4 z m 0 0" fill="#5e5c64"/>
    <path d="m 72 98 c 0 2.210938 -1.789062 4 -4 4 s -4 -1.789062 -4 -4 s 1.789062 -4 4 -4 s 4 1.789062 4 4 z m 0 0" fill="#9a9996"/>
    <path d="m 56 100 c 0 2.210938 -1.789062 4 -4 4 s -4 -1.789062 -4 -4 s 1.789062 -4 4 -4 s 4 1.789062 4 4 z m 0 0" fill="#5e5c64"/>
    <path d="m 56 98 c 0 2.210938 -1.789062 4 -4 4 s -4 -1.789062 -4 -4 s 1.789062 -4 4 -4 s 4 1.789062 4 4 z m 0 0" fill="#9a9996"/>
    <path d="m 28 96 h 8 c 2.210938 0 4 1.789062 4 4 s -1.789062 4 -4 4 h -8 c -2.210938 0 -4 -1.789062 -4 -4 s 1.789062 -4 4 -4 z m 0 0" fill="#241f31"/>
    <path d="m 40 28 h 48 c 6.625 0 12 4.988281 12 11.144531 v 29.710938 c 0 6.15625 -5.375 11.144531 -12 11.144531 h -48 c -6.625 0 -12 -4.988281 -12 -11.144531 v -29.710938 c 0 -6.15625 5.375 -11.144531 12 -11.144531 z m 0 0" fill="url(#b)"/>
    <path d="m 64 54 c -21.0625 -0.238281 -36 -12.496094 -36 -12.496094 l 0.230469 8.042969 l -0.230469 20.039063 c -0.03125 2.652343 1.121094 4.699218 2.828125 6.472656 c 2.207031 2.289062 5.425781 3.941406 9.171875 3.941406 h 48 c 6.648438 0 12 -4.808594 12 -10.890625 v -27.144531 s -1.503906 1.691406 -4.863281 3.921875 c -5.296875 3.527343 -14.875 8.296875 -31.136719 8.113281 z m 0 0" fill="url(#c)"/>
    <path d="m 64 54 c -21.0625 -0.238281 -36 -12.496094 -36 -12.496094 v 27.257813 c 0 6.078125 5.355469 11.238281 12 11.238281 h 48 c 4.695312 0 8.746094 -2.160156 10.71875 -5.574219 c 0.820312 -1.417969 1.28125 -3.054687 1.28125 -4.839843 v -27.621094 s -1.503906 1.691406 -4.859375 3.921875 c -5.296875 3.527343 -14.878906 8.296875 -31.140625 8.113281 z m 0 0" fill="url(#d)"/>
    <path d="m 65.757812 40.507812 c 0.421876 0.027344 0.847657 0.074219 1.265626 0.140626 c 3.554687 0.507812 6.765624 2.402343 8.929687 5.273437 c 4.457031 5.945313 3.203125 14.457031 -2.738281 18.914063 c -5.945313 4.457031 -14.457032 3.199218 -18.914063 -2.742188 c -0.277343 -0.382812 -0.429687 -0.859375 -0.425781 -1.335938 v -2.25 h 2.25 c 0.71875 0.003907 1.398438 0.339844 1.832031 0.914063 c 2.996094 3.996094 8.585938 4.757813 12.582031 1.757813 c 4 -2.996094 4.757813 -8.585938 1.761719 -12.585938 c -3.003906 -3.996094 -8.59375 -4.753906 -12.59375 -1.757812 c -0.964843 0.726562 -1.730469 1.648437 -2.316406 2.671874 h 3.234375 c 1.242188 0 2.25 1.007813 2.25 2.25 v 2.25 h -13.5 v -13.5 h 2.25 c 1.242188 0 2.25 1.007813 2.25 2.25 v 3.796876 c 2.609375 -3.976563 7.128906 -6.277344 11.882812 -6.046876 z m 0 0" fill="#f6f5f4"/>
</svg>
