<?xml version="1.0" encoding="UTF-8"?>
<svg xmlns="http://www.w3.org/2000/svg" xmlns:xlink="http://www.w3.org/1999/xlink" width="16px" height="16px" viewBox="0 0 16 16" version="1.1">
<g id="surface24757">
<path style=" stroke:none;fill-rule:nonzero;fill:rgb(18.039216%,20.392157%,21.176471%);fill-opacity:1;" d="M 9.179688 0 C 9.214844 4.886719 8.527344 6.1875 6.136719 6.644531 C 5.050781 6.851562 3.628906 4.414062 3.742188 4.351562 C 3.535156 4.214844 1.800781 8.5625 2.019531 10.964844 C 2.207031 13.027344 2.867188 13.957031 3.5625 14.726562 C 4.355469 15.601562 5.785156 15.957031 7.03125 15.992188 C 8.976562 16.050781 11.304688 15.671875 12.574219 14.332031 C 14.074219 12.753906 14.257812 10.140625 13.738281 8.164062 C 13.035156 5.503906 9.308594 0.0546875 9.179688 0 Z M 10.1875 6.636719 C 10.742188 8.746094 11.1875 9.761719 10.433594 11.214844 C 10.113281 11.832031 9.230469 12.550781 8.222656 12.75 C 7.3125 12.929688 6.160156 12.644531 5.785156 12.257812 C 5.382812 11.84375 4.894531 11.046875 5.042969 9.386719 C 5.003906 9.410156 5.800781 10.5 7.09375 10.179688 C 8.488281 9.832031 10.199219 8.480469 10.1875 6.636719 Z M 10.1875 6.636719 "/>
</g>
</svg>
