<?xml version="1.0" encoding="UTF-8"?>
<svg xmlns="http://www.w3.org/2000/svg" xmlns:xlink="http://www.w3.org/1999/xlink" width="16px" height="16px" viewBox="0 0 16 16" version="1.1">
<g id="surface24763">
<path style=" stroke:none;fill-rule:nonzero;fill:rgb(18.039216%,20.392157%,21.176471%);fill-opacity:1;" d="M 1.601562 6.398438 C 0.714844 6.402344 0 7.117188 0 8 L 0 14.398438 C 0 15.285156 0.714844 16 1.601562 16 L 14.398438 16 C 15.285156 16 16 15.285156 16 14.398438 L 16 8 C 16 7.117188 15.285156 6.402344 14.398438 6.398438 Z M 6.398438 8.582031 L 11.199219 11.199219 L 6.398438 13.808594 Z M 6.398438 8.582031 "/>
<path style=" stroke:none;fill-rule:nonzero;fill:rgb(18.039216%,20.392157%,21.176471%);fill-opacity:1;" d="M 1.601562 3.199219 L 1.601562 4.800781 L 14.398438 4.800781 L 14.398438 3.199219 Z M 1.601562 3.199219 "/>
<path style=" stroke:none;fill-rule:nonzero;fill:rgb(18.039216%,20.392157%,21.176471%);fill-opacity:1;" d="M 3.199219 0 L 3.199219 1.601562 L 12.800781 1.601562 L 12.800781 0 Z M 3.199219 0 "/>
</g>
</svg>
