<?xml version="1.0" encoding="UTF-8"?>
<svg xmlns="http://www.w3.org/2000/svg" xmlns:xlink="http://www.w3.org/1999/xlink" width="16px" height="16px" viewBox="0 0 16 16" version="1.1">
<g id="surface24751">
<path style=" stroke:none;fill-rule:nonzero;fill:rgb(18.039216%,20.392157%,21.176471%);fill-opacity:1;" d="M 5 0 C 3.910156 0 3 0.910156 3 2 L 3 11 C 3 12.089844 3.910156 13 5 13 L 14 13 C 15.089844 13 16 12.089844 16 11 L 16 2 C 16 0.910156 15.089844 0 14 0 Z M 12.929688 6.367188 L 7.296875 9.679688 L 7.296875 3.054688 Z M 12.929688 6.367188 "/>
<path style=" stroke:none;fill-rule:nonzero;fill:rgb(18.039216%,20.392157%,21.176471%);fill-opacity:1;" d="M 2 3 C 0.910156 3 0 3.910156 0 5 L 0 14 C 0 15.089844 0.910156 16 2 16 L 11 16 C 12.089844 16 13 15.089844 13 14 L 2 14 Z M 2 3 "/>
</g>
</svg>
