<?xml version="1.0" encoding="UTF-8" standalone="no"?>
<svg
   xmlns:dc="http://purl.org/dc/elements/1.1/"
   xmlns:cc="http://creativecommons.org/ns#"
   xmlns:rdf="http://www.w3.org/1999/02/22-rdf-syntax-ns#"
   xmlns:svg="http://www.w3.org/2000/svg"
   xmlns="http://www.w3.org/2000/svg"
   xmlns:sodipodi="http://sodipodi.sourceforge.net/DTD/sodipodi-0.dtd"
   xmlns:inkscape="http://www.inkscape.org/namespaces/inkscape"
   width="16px"
   height="16px"
   viewBox="0 0 16 16"
   version="1.1"
   id="svg13"
   sodipodi:docname="youtube-trending-symbolic.svg"
   inkscape:version="0.92.4 5da689c313, 2019-01-14">
  <metadata
     id="metadata19">
    <rdf:RDF>
      <cc:Work
         rdf:about="">
        <dc:format>image/svg+xml</dc:format>
        <dc:type
           rdf:resource="http://purl.org/dc/dcmitype/StillImage" />
      </cc:Work>
    </rdf:RDF>
  </metadata>
  <defs
     id="defs17" />
  <sodipodi:namedview
     pagecolor="#ffffff"
     bordercolor="#666666"
     borderopacity="1"
     objecttolerance="10"
     gridtolerance="10"
     guidetolerance="10"
     inkscape:pageopacity="0"
     inkscape:pageshadow="2"
     inkscape:window-width="1366"
     inkscape:window-height="697"
     id="namedview15"
     showgrid="false"
     inkscape:zoom="14.75"
     inkscape:cx="8"
     inkscape:cy="8"
     inkscape:window-x="0"
     inkscape:window-y="0"
     inkscape:window-maximized="1"
     inkscape:current-layer="svg13" />
  <path
     id="path3772"
     d="M 12.852164,7.2890969 C 12.647714,7.0224227 12.407707,6.791305 12.176589,6.5601873 11.598795,6.0268387 10.932109,5.6446056 10.372093,5.0845896 9.0742786,3.7867748 8.8076036,1.6444915 9.6165156,1.6964941e-7 8.8076036,0.20445047 8.0609156,0.66668587 7.4386759,1.173367 5.1808338,3.0223085 4.2919188,6.2846239 5.3586168,9.0847037 c 0.03556,0.088891 0.07111,0.1777829 0.07111,0.2933417 0,0.1955611 -0.133337,0.373344 -0.31112,0.4444571 -0.195562,0.088891 -0.408901,0.035557 -0.568906,-0.1066697 -0.05333,-0.044446 -0.08889,-0.088891 -0.133337,-0.1511154 -0.977805,-1.2711474 -1.13781,-3.0934216 -0.471124,-4.5512409 -1.45782,1.2089234 -2.248953,3.2534261 -2.124505,5.1823695 0.03556,0.444457 0.08889,0.888914 0.240007,1.333371 0.124448,0.533349 0.355565,1.066697 0.640018,1.537822 0.924471,1.537822 2.551184,2.640075 4.3023452,2.862304 1.8667196,0.240007 3.866777,-0.10667 5.297929,-1.422263 1.600046,-1.475598 2.17784,-3.840109 1.333372,-5.8668334 L 13.51885,8.4091289 C 13.341067,8.0002283 13.10106,7.6357735 12.807718,7.2979861 l 0.04445,-0.00889 M 10.09653,12.889255 c -0.2488964,0.21334 -0.6489074,0.444457 -0.9600274,0.533349 -0.977806,0.355565 -1.9556115,-0.142227 -2.551184,-0.72891 1.0578079,-0.248896 1.680048,-1.03114 1.857831,-1.822274 0.151115,-0.711131 -0.124448,-1.2978143 -0.240007,-1.9822782 -0.10667,-0.6577966 -0.08889,-1.2178125 0.160004,-1.8311634 0.151116,0.3377875 0.328899,0.6755749 0.533349,0.9422491 0.675575,0.8889143 1.7333834,1.2800365 1.9556114,2.4889595 0.03556,0.124448 0.05333,0.248896 0.05333,0.382233 0.02667,0.72891 -0.284452,1.528932 -0.817801,2.017835 z"
     inkscape:connector-curvature="0"
     style="stroke-width:0.88891423" />
</svg>
